<svg width="65" height="64" viewBox="0 0 65 64" fill="none" xmlns="http://www.w3.org/2000/svg">
<g id="Profile/ Empty State">
<path id="Vector" d="M59.1666 32H43.1666L37.8333 40H27.1666L21.8333 32H5.83325" stroke="#5C5F6A" stroke-width="2" stroke-linecap="round" stroke-linejoin="round"/>
<path id="Vector_2" d="M15.0333 13.6267L5.83325 32V48C5.83325 49.4145 6.39515 50.771 7.39535 51.7712C8.39554 52.7714 9.7521 53.3333 11.1666 53.3333H53.8332C55.2477 53.3333 56.6043 52.7714 57.6045 51.7712C58.6047 50.771 59.1666 49.4145 59.1666 48V32L49.9666 13.6267C49.525 12.7381 48.8444 11.9903 48.0011 11.4674C47.1579 10.9445 46.1855 10.6672 45.1933 10.6667H19.8066C18.8144 10.6672 17.842 10.9445 16.9987 11.4674C16.1555 11.9903 15.4748 12.7381 15.0333 13.6267Z" stroke="#5C5F6A" stroke-width="2" stroke-linecap="round" stroke-linejoin="round"/>
</g>
</svg>
